<svg xmlns="http://www.w3.org/2000/svg" xmlns:xlink="http://www.w3.org/1999/xlink" viewBox="50.02685546875 43.44435501098633 235.47314453125 134.05564880371094" width="351.30656057028705" height="200"><path d="M 73.500,130.000 C 62.724,133.357 65.250,130.500 57.000,131.000" stroke-width="2.741" stroke="black" fill="none" stroke-linecap="round"></path><path d="M 57.000,131.000 C 54.737,126.286 54.224,129.857 56.500,123.000" stroke-width="3.786" stroke="black" fill="none" stroke-linecap="round"></path><path d="M 56.500,123.000 C 61.531,115.938 60.237,116.036 68.000,110.500" stroke-width="3.049" stroke="black" fill="none" stroke-linecap="round"></path><path d="M 68.000,110.500 C 79.090,101.618 78.781,101.438 91.000,94.000" stroke-width="2.257" stroke="black" fill="none" stroke-linecap="round"></path><path d="M 91.000,94.000 C 107.158,84.338 106.840,83.868 123.500,75.000" stroke-width="1.876" stroke="black" fill="none" stroke-linecap="round"></path><path d="M 123.500,75.000 C 139.081,67.021 138.658,66.338 154.000,58.000" stroke-width="1.852" stroke="black" fill="none" stroke-linecap="round"></path><path d="M 154.000,58.000 C 163.672,52.205 160.581,54.021 166.500,49.000" stroke-width="2.505" stroke="black" fill="none" stroke-linecap="round"></path><path d="M 166.500,49.000 C 163.706,48.397 167.422,47.955 161.500,49.500" stroke-width="3.800" stroke="black" fill="none" stroke-linecap="round"></path><path d="M 161.500,49.500 C 153.739,53.877 153.706,53.397 146.500,59.000" stroke-width="3.000" stroke="black" fill="none" stroke-linecap="round"></path><path d="M 146.500,59.000 C 136.886,64.846 137.489,65.377 129.000,72.500" stroke-width="2.523" stroke="black" fill="none" stroke-linecap="round"></path><path d="M 129.000,72.500 C 118.478,80.981 119.886,81.346 112.500,92.000" stroke-width="2.324" stroke="black" fill="none" stroke-linecap="round"></path><path d="M 112.500,92.000 C 106.308,105.458 105.728,104.481 103.500,119.500" stroke-width="2.149" stroke="black" fill="none" stroke-linecap="round"></path><path d="M 103.500,119.500 C 101.452,129.901 101.558,129.208 103.000,139.500" stroke-width="2.383" stroke="black" fill="none" stroke-linecap="round"></path><path d="M 103.000,139.500 C 104.081,147.186 103.952,145.401 108.500,150.500" stroke-width="2.938" stroke="black" fill="none" stroke-linecap="round"></path><path d="M 108.500,150.500 C 114.733,153.000 113.081,153.936 121.000,153.000" stroke-width="3.126" stroke="black" fill="none" stroke-linecap="round"></path><path d="M 121.000,153.000 C 128.626,152.835 128.233,153.000 135.500,150.500" stroke-width="2.986" stroke="black" fill="none" stroke-linecap="round"></path><path d="M 135.500,150.500 C 141.835,147.723 141.876,148.335 147.500,144.000" stroke-width="3.079" stroke="black" fill="none" stroke-linecap="round"></path><path d="M 147.500,144.000 C 154.024,141.048 150.585,141.973 153.000,139.000" stroke-width="3.575" stroke="black" fill="none" stroke-linecap="round"></path><path d="M 153.000,139.000 C 147.915,134.479 151.274,135.548 142.000,133.000" stroke-width="3.934" stroke="black" fill="none" stroke-linecap="round"></path><path d="M 142.000,133.000 C 134.422,131.768 134.915,131.229 127.000,132.500" stroke-width="3.220" stroke="black" fill="none" stroke-linecap="round"></path><path d="M 127.000,132.500 C 116.075,132.692 116.672,133.518 106.500,136.500" stroke-width="2.631" stroke="black" fill="none" stroke-linecap="round"></path><path d="M 106.500,136.500 C 93.771,141.995 94.075,141.442 83.000,150.000" stroke-width="2.289" stroke="black" fill="none" stroke-linecap="round"></path><path d="M 83.000,150.000 C 75.400,156.414 75.271,155.745 69.500,164.000" stroke-width="2.458" stroke="black" fill="none" stroke-linecap="round"></path><path d="M 69.500,164.000 C 64.925,169.051 66.650,167.664 65.500,172.500" stroke-width="3.172" stroke="black" fill="none" stroke-linecap="round"></path><path d="M 160.000,103.000 C 160.413,96.025 159.000,99.250 158.000,95.500" stroke-width="5.254" stroke="black" fill="none" stroke-linecap="round"></path><path d="M 158.000,95.500 C 152.359,96.962 154.663,94.775 148.500,100.500" stroke-width="4.814" stroke="black" fill="none" stroke-linecap="round"></path><path d="M 148.500,100.500 C 143.581,105.862 143.359,105.212 140.000,112.000" stroke-width="3.431" stroke="black" fill="none" stroke-linecap="round"></path><path d="M 140.000,112.000 C 136.531,118.070 136.581,117.862 134.500,124.500" stroke-width="3.207" stroke="black" fill="none" stroke-linecap="round"></path><path d="M 134.500,124.500 C 132.507,129.631 133.531,127.570 134.000,131.000" stroke-width="3.722" stroke="black" fill="none" stroke-linecap="round"></path><path d="M 134.000,131.000 C 137.723,131.597 135.507,132.381 140.500,130.000" stroke-width="3.949" stroke="black" fill="none" stroke-linecap="round"></path><path d="M 140.500,130.000 C 147.443,124.982 147.723,125.847 154.000,119.500" stroke-width="3.071" stroke="black" fill="none" stroke-linecap="round"></path><path d="M 154.000,119.500 C 163.132,112.614 162.693,112.232 171.000,104.500" stroke-width="2.510" stroke="black" fill="none" stroke-linecap="round"></path><path d="M 171.000,104.500 C 178.959,95.836 179.132,96.114 186.000,86.500" stroke-width="2.407" stroke="black" fill="none" stroke-linecap="round"></path><path d="M 186.000,86.500 C 190.185,80.358 190.459,80.586 194.000,74.000" stroke-width="2.795" stroke="black" fill="none" stroke-linecap="round"></path><path d="M 194.000,74.000 C 199.479,65.843 196.185,70.358 198.000,66.500" stroke-width="3.402" stroke="black" fill="none" stroke-linecap="round"></path><path d="M 198.000,66.500 C 190.710,71.576 194.979,67.843 185.000,78.000" stroke-width="3.596" stroke="black" fill="none" stroke-linecap="round"></path><path d="M 185.000,78.000 C 181.431,83.457 180.710,82.826 178.000,89.000" stroke-width="3.233" stroke="black" fill="none" stroke-linecap="round"></path><path d="M 178.000,89.000 C 174.463,93.767 174.931,93.957 172.000,99.000" stroke-width="3.305" stroke="black" fill="none" stroke-linecap="round"></path><path d="M 172.000,99.000 C 168.218,104.911 170.463,102.267 170.000,106.000" stroke-width="3.724" stroke="black" fill="none" stroke-linecap="round"></path><path d="M 170.000,106.000 C 176.083,106.549 172.718,107.661 181.000,104.500" stroke-width="4.051" stroke="black" fill="none" stroke-linecap="round"></path><path d="M 181.000,104.500 C 184.636,101.647 185.083,102.799 188.000,98.500" stroke-width="3.759" stroke="black" fill="none" stroke-linecap="round"></path><path d="M 188.000,98.500 C 192.122,94.113 192.386,94.397 196.500,90.000" stroke-width="3.359" stroke="black" fill="none" stroke-linecap="round"></path><path d="M 196.500,90.000 C 200.584,86.590 200.372,86.363 204.500,83.000" stroke-width="3.430" stroke="black" fill="none" stroke-linecap="round"></path><path d="M 204.500,83.000 C 208.187,78.270 206.584,81.090 208.500,79.000" stroke-width="3.947" stroke="black" fill="none" stroke-linecap="round"></path><path d="M 208.500,79.000 C 204.827,86.393 208.937,80.020 206.000,86.500" stroke-width="4.710" stroke="black" fill="none" stroke-linecap="round"></path><path d="M 206.000,86.500 C 210.175,83.178 207.577,86.643 214.000,79.500" stroke-width="4.811" stroke="black" fill="none" stroke-linecap="round"></path><path d="M 214.000,79.500 C 216.266,76.496 216.675,76.928 219.000,74.000" stroke-width="4.146" stroke="black" fill="none" stroke-linecap="round"></path><path d="M 219.000,74.000 C 222.062,71.200 222.016,71.246 225.500,69.000" stroke-width="3.837" stroke="black" fill="none" stroke-linecap="round"></path><path d="M 225.500,69.000 C 228.338,66.922 228.312,67.200 231.500,66.000" stroke-width="3.973" stroke="black" fill="none" stroke-linecap="round"></path><path d="M 231.500,66.000 C 236.543,63.906 234.338,65.172 237.500,65.500" stroke-width="4.491" stroke="black" fill="none" stroke-linecap="round"></path><path d="M 237.500,65.500 C 236.914,69.540 238.793,67.656 236.000,73.500" stroke-width="4.506" stroke="black" fill="none" stroke-linecap="round"></path><path d="M 236.000,73.500 C 235.391,76.050 235.414,76.040 234.500,78.500" stroke-width="4.362" stroke="black" fill="none" stroke-linecap="round"></path><path d="M 234.500,78.500 C 233.614,81.702 233.391,81.550 232.000,84.500" stroke-width="4.153" stroke="black" fill="none" stroke-linecap="round"></path><path d="M 232.000,84.500 C 229.953,88.429 229.864,88.202 227.000,91.500" stroke-width="3.794" stroke="black" fill="none" stroke-linecap="round"></path><path d="M 227.000,91.500 C 219.278,98.055 223.703,94.929 219.500,97.500" stroke-width="3.652" stroke="black" fill="none" stroke-linecap="round"></path><path d="M 219.500,97.500 C 223.418,92.858 219.778,96.805 228.000,89.000" stroke-width="4.228" stroke="black" fill="none" stroke-linecap="round"></path><path d="M 228.000,89.000 C 233.009,84.862 232.918,84.858 238.500,81.500" stroke-width="3.450" stroke="black" fill="none" stroke-linecap="round"></path><path d="M 238.500,81.500 C 245.599,77.924 245.259,77.362 252.500,74.000" stroke-width="2.986" stroke="black" fill="none" stroke-linecap="round"></path><path d="M 252.500,74.000 C 258.104,70.229 258.349,70.674 264.000,67.000" stroke-width="3.091" stroke="black" fill="none" stroke-linecap="round"></path><path d="M 264.000,67.000 C 268.626,64.420 268.604,64.479 273.500,62.500" stroke-width="3.351" stroke="black" fill="none" stroke-linecap="round"></path><path d="M 273.500,62.500 C 279.980,59.850 276.876,61.170 280.500,60.500" stroke-width="3.696" stroke="black" fill="none" stroke-linecap="round"></path></svg>