<svg xmlns="http://www.w3.org/2000/svg" viewBox="0 0 800 450" fill="none">
  <!-- Background -->
  <rect width="800" height="450" fill="#C2CBC0"/>

  <!-- Field rows (agricultural pattern - horizontal crop rows) -->
  <path d="M 0 420 Q 200 410, 400 420 Q 600 430, 800 420" stroke="#1A1A1A" stroke-width="1" stroke-opacity="0.10" fill="none"/>
  <path d="M 0 400 Q 200 390, 400 400 Q 600 410, 800 400" stroke="#1A1A1A" stroke-width="1" stroke-opacity="0.10" fill="none"/>
  <path d="M 0 380 Q 200 368, 400 378 Q 600 388, 800 376" stroke="#1A1A1A" stroke-width="1.5" stroke-opacity="0.12" fill="none"/>
  <path d="M 0 355 Q 200 344, 400 354 Q 600 364, 800 352" stroke="#1A1A1A" stroke-width="1.5" stroke-opacity="0.14" fill="none"/>
  <path d="M 0 328 Q 200 317, 400 327 Q 600 337, 800 325" stroke="#1A1A1A" stroke-width="2"   stroke-opacity="0.16" fill="none"/>
  <path d="M 0 299 Q 200 288, 400 298 Q 600 308, 800 296" stroke="#1A1A1A" stroke-width="2"   stroke-opacity="0.16" fill="none"/>
  <path d="M 0 268 Q 200 257, 400 267 Q 600 277, 800 265" stroke="#1A1A1A" stroke-width="2.5" stroke-opacity="0.18" fill="none"/>
  <path d="M 0 235 Q 200 224, 400 234 Q 600 244, 800 232" stroke="#1A1A1A" stroke-width="2.5" stroke-opacity="0.18" fill="none"/>
  <path d="M 0 200 Q 200 189, 400 199 Q 600 209, 800 197" stroke="#1A1A1A" stroke-width="3"   stroke-opacity="0.20" fill="none"/>
  <path d="M 0 163 Q 200 152, 400 162 Q 600 172, 800 160" stroke="#1A1A1A" stroke-width="2.5" stroke-opacity="0.18" fill="none"/>
  <path d="M 0 124 Q 200 113, 400 123 Q 600 133, 800 121" stroke="#1A1A1A" stroke-width="2"   stroke-opacity="0.15" fill="none"/>
  <path d="M 0 84" stroke="#1A1A1A" stroke-width="1.5" stroke-opacity="0.12" fill="none"/>

  <!-- Data analysis overlay: bar chart (3700+ dealers analyzed) -->
  <rect x="60" y="240" width="22" height="80"  rx="2" fill="#1A1A1A" fill-opacity="0.18"/>
  <rect x="88" y="200" width="22" height="120" rx="2" fill="#1A1A1A" fill-opacity="0.22"/>
  <rect x="116" y="160" width="22" height="160" rx="2" fill="#1A1A1A" fill-opacity="0.26"/>
  <rect x="144" y="185" width="22" height="135" rx="2" fill="#1A1A1A" fill-opacity="0.22"/>
  <rect x="172" y="215" width="22" height="105" rx="2" fill="#1A1A1A" fill-opacity="0.18"/>
  <rect x="200" y="250" width="22" height="70"  rx="2" fill="#1A1A1A" fill-opacity="0.14"/>

  <!-- Trend line over bars -->
  <polyline points="71,240 99,200 127,160 155,185 183,215 211,250" stroke="#1A1A1A" stroke-width="2" stroke-opacity="0.35" fill="none" stroke-linecap="round" stroke-linejoin="round"/>

  <!-- Chart label -->
  <text x="136" y="356" font-family="'Arial', 'Helvetica', sans-serif" font-size="8" fill="#1A1A1A" fill-opacity="0.35" text-anchor="middle" letter-spacing="2">REGIONAL SALES</text>
  <line x1="52" y1="340" x2="240" y2="340" stroke="#1A1A1A" stroke-width="0.75" stroke-opacity="0.2"/>

  <!-- SKU adoption visualization (right side) -->
  <!-- Two product cards -->
  <rect x="560" y="80"  width="180" height="110" rx="4" stroke="#1A1A1A" stroke-width="1.5" stroke-opacity="0.22" fill="#1A1A1A" fill-opacity="0.05"/>
  <rect x="580" y="100" width="60"  height="8"   rx="2" fill="#1A1A1A" fill-opacity="0.2"/>
  <rect x="580" y="116" width="90"  height="6"   rx="2" fill="#1A1A1A" fill-opacity="0.14"/>
  <rect x="580" y="130" width="70"  height="6"   rx="2" fill="#1A1A1A" fill-opacity="0.10"/>
  <!-- Adoption bar for SKU 1 -->
  <rect x="580" y="150" width="140" height="6" rx="3" fill="#1A1A1A" fill-opacity="0.08"/>
  <rect x="580" y="150" width="119" height="6" rx="3" fill="#1A1A1A" fill-opacity="0.28"/>
  <text x="707" y="157" font-family="'Arial', 'Helvetica', sans-serif" font-size="7" fill="#1A1A1A" fill-opacity="0.5">85%</text>

  <rect x="560" y="210" width="180" height="110" rx="4" stroke="#1A1A1A" stroke-width="1.5" stroke-opacity="0.22" fill="#1A1A1A" fill-opacity="0.05"/>
  <rect x="580" y="230" width="60"  height="8"   rx="2" fill="#1A1A1A" fill-opacity="0.2"/>
  <rect x="580" y="246" width="90"  height="6"   rx="2" fill="#1A1A1A" fill-opacity="0.14"/>
  <rect x="580" y="260" width="70"  height="6"   rx="2" fill="#1A1A1A" fill-opacity="0.10"/>
  <!-- Adoption bar for SKU 2 -->
  <rect x="580" y="280" width="140" height="6" rx="3" fill="#1A1A1A" fill-opacity="0.08"/>
  <rect x="580" y="280" width="119" height="6" rx="3" fill="#1A1A1A" fill-opacity="0.28"/>
  <text x="707" y="287" font-family="'Arial', 'Helvetica', sans-serif" font-size="7" fill="#1A1A1A" fill-opacity="0.5">85%</text>

  <text x="650" y="340" font-family="'Arial', 'Helvetica', sans-serif" font-size="8" fill="#1A1A1A" fill-opacity="0.35" text-anchor="middle" letter-spacing="2">2 NEW SKUS</text>

  <!-- Metric badge: 3,700+ -->
  <rect x="52" y="24" width="110" height="32" rx="16" fill="#1A1A1A" fill-opacity="0.85"/>
  <text x="107" y="44" font-family="'Georgia', serif" font-size="13" font-weight="700" fill="#C2CBC0" text-anchor="middle">3,700+</text>

  <!-- Company name -->
  <text x="400" y="415" font-family="'Arial', 'Helvetica', sans-serif" font-size="26" font-weight="800" fill="#1A1A1A" fill-opacity="0.10" text-anchor="middle" letter-spacing="5">GANGOTHRI NUTRIENTS</text>

  <!-- Role label -->
  <rect x="578" y="24" width="180" height="28" rx="0" fill="#1A1A1A" fill-opacity="0.08"/>
  <text x="668" y="42" font-family="'Arial', 'Helvetica', sans-serif" font-size="9" font-weight="600" fill="#1A1A1A" fill-opacity="0.6" text-anchor="middle" letter-spacing="2">PRODUCT OPS INTERN</text>

  <!-- Bottom labels -->
  <text x="52" y="430" font-family="'Arial', 'Helvetica', sans-serif" font-size="9" fill="#1A1A1A" fill-opacity="0.35" letter-spacing="2">2023</text>
  <text x="748" y="430" font-family="'Arial', 'Helvetica', sans-serif" font-size="9" fill="#1A1A1A" fill-opacity="0.35" text-anchor="end" letter-spacing="2">DEMAND FORECASTING</text>
</svg>
